<svg xmlns="http://www.w3.org/2000/svg" width="300" height="320" viewBox="0 0 300 320" role="img" aria-labelledby="scarf-amber-title"><title id="scarf-amber-title">scarf amber</title><defs><linearGradient id="scarf-amber-sky" x2="0" y2="1"><stop stop-color="#D9EAE0"/><stop offset=".7" stop-color="#F4EED4"/><stop offset="1" stop-color="#F6DFB1"/></linearGradient><linearGradient id="scarf-amber-wood" x1="0" y1="0" x2=".2" y2="1"><stop stop-color="#E6BD7F"/><stop offset=".5" stop-color="#BD8B53"/><stop offset="1" stop-color="#8D603E"/></linearGradient><linearGradient id="scarf-amber-wall" x2=".8" y2="1"><stop stop-color="#FFF3D5"/><stop offset=".65" stop-color="#EAD5AC"/><stop offset="1" stop-color="#C3AE84"/></linearGradient><linearGradient id="scarf-amber-roof" x2=".25" y2="1"><stop stop-color="#DA8C6C"/><stop offset=".6" stop-color="#B86556"/><stop offset="1" stop-color="#874B46"/></linearGradient><linearGradient id="scarf-amber-leaf" x2=".7" y2="1"><stop stop-color="#8DA66B"/><stop offset=".55" stop-color="#527C59"/><stop offset="1" stop-color="#2B5748"/></linearGradient><linearGradient id="scarf-amber-water" x2="0" y2="1"><stop stop-color="#8AC1AF"/><stop offset=".45" stop-color="#519688"/><stop offset="1" stop-color="#266F68"/></linearGradient><linearGradient id="scarf-amber-fox" x2=".6" y2="1"><stop stop-color="#ECAF64"/><stop offset=".45" stop-color="#D68549"/><stop offset="1" stop-color="#A95635"/></linearGradient><linearGradient id="scarf-amber-apple" x2=".8" y2="1"><stop stop-color="#E6A077"/><stop offset=".35" stop-color="#CA6B54"/><stop offset="1" stop-color="#963E3D"/></linearGradient><linearGradient id="scarf-amber-pear" x2=".7" y2="1"><stop stop-color="#E7CC76"/><stop offset=".4" stop-color="#B9BA60"/><stop offset="1" stop-color="#788C4D"/></linearGradient><radialGradient id="scarf-amber-light"><stop stop-color="#FFE8A5" stop-opacity=".9"/><stop offset="1" stop-color="#FFE8A5" stop-opacity="0"/></radialGradient><filter id="scarf-amber-shadow" x="-20%" y="-20%" width="140%" height="150%"><feDropShadow dx="0" dy="5" stdDeviation="3" flood-color="#263D38" flood-opacity=".16"/></filter></defs><g  id="scarf-amber-artwork" aria-label="artwork" ><path d="M83 152Q123 168 163 150L173 174Q133 194 80 178Z" fill="#D4A049" stroke="#344B40" stroke-width="2.5"/><path d="M146 172Q168 179 189 214L172 212L165 226Q141 202 131 180Z" fill="#D4A049" stroke="#344B40" stroke-width="2.5"/><path d="M88 173q33 10 70-2M144 183l23 25" fill="none" stroke="#FFF6E5" stroke-width="1.6" stroke-linecap="round" stroke-linejoin="round" stroke-dasharray="3 4" opacity=".7"/><path d="M134 177q13-15 25-9l-5 16Z" fill="#D4A049" stroke="#344B40" stroke-width="2"/></g></svg>