<svg xmlns="http://www.w3.org/2000/svg" width="240" height="240" viewBox="0 0 240 240" role="img" aria-labelledby="spellbook-title"><title id="spellbook-title">spellbook</title><defs><linearGradient id="spellbook-sky" x2="0" y2="1"><stop stop-color="#D9EAE0"/><stop offset=".7" stop-color="#F4EED4"/><stop offset="1" stop-color="#F6DFB1"/></linearGradient><linearGradient id="spellbook-wood" x1="0" y1="0" x2=".2" y2="1"><stop stop-color="#E6BD7F"/><stop offset=".5" stop-color="#BD8B53"/><stop offset="1" stop-color="#8D603E"/></linearGradient><linearGradient id="spellbook-wall" x2=".8" y2="1"><stop stop-color="#FFF3D5"/><stop offset=".65" stop-color="#EAD5AC"/><stop offset="1" stop-color="#C3AE84"/></linearGradient><linearGradient id="spellbook-roof" x2=".25" y2="1"><stop stop-color="#DA8C6C"/><stop offset=".6" stop-color="#B86556"/><stop offset="1" stop-color="#874B46"/></linearGradient><linearGradient id="spellbook-leaf" x2=".7" y2="1"><stop stop-color="#8DA66B"/><stop offset=".55" stop-color="#527C59"/><stop offset="1" stop-color="#2B5748"/></linearGradient><linearGradient id="spellbook-water" x2="0" y2="1"><stop stop-color="#8AC1AF"/><stop offset=".45" stop-color="#519688"/><stop offset="1" stop-color="#266F68"/></linearGradient><linearGradient id="spellbook-fox" x2=".6" y2="1"><stop stop-color="#ECAF64"/><stop offset=".45" stop-color="#D68549"/><stop offset="1" stop-color="#A95635"/></linearGradient><linearGradient id="spellbook-apple" x2=".8" y2="1"><stop stop-color="#E6A077"/><stop offset=".35" stop-color="#CA6B54"/><stop offset="1" stop-color="#963E3D"/></linearGradient><linearGradient id="spellbook-pear" x2=".7" y2="1"><stop stop-color="#E7CC76"/><stop offset=".4" stop-color="#B9BA60"/><stop offset="1" stop-color="#788C4D"/></linearGradient><radialGradient id="spellbook-light"><stop stop-color="#FFE8A5" stop-opacity=".9"/><stop offset="1" stop-color="#FFE8A5" stop-opacity="0"/></radialGradient><filter id="spellbook-shadow" x="-20%" y="-20%" width="140%" height="150%"><feDropShadow dx="0" dy="5" stdDeviation="3" flood-color="#263D38" flood-opacity=".16"/></filter></defs><g  id="spellbook-artwork" aria-label="artwork" ><path d="M19 51Q64 34 120 60Q172 34 220 51L225 192Q170 178 120 204Q65 181 15 192Z" fill="#70536F" stroke="#51484D" stroke-width="3"/><path d="M26 48Q73 36 120 61V193Q72 173 26 181Z" fill="url(#spellbook-wall)" /><path d="M120 61Q168 35 215 48V181Q164 176 120 193Z" fill="#FFF6E5" /><path d="M120 64v127M34 170q42-5 76 13M132 183q40-15 74-13" fill="none" stroke="#BEAC89" stroke-width="2" stroke-linecap="round" stroke-linejoin="round" /><path d="M171 43l13-1v83l-7-7-7 9Z" fill="#C16C60" /><path d="M58 90Q86 67 97 101Q79 127 58 90Z" fill="#9BAB7C" /><path d="M64 94l26 14" fill="none" stroke="#647A53" stroke-width="2" stroke-linecap="round" stroke-linejoin="round" /></g></svg>