<svg xmlns="http://www.w3.org/2000/svg" width="640" height="420" viewBox="0 0 640 420" role="img" aria-labelledby="world-map-title"><title id="world-map-title">world map</title><defs><linearGradient id="world-map-sky" x2="0" y2="1"><stop stop-color="#D9EAE0"/><stop offset=".7" stop-color="#F4EED4"/><stop offset="1" stop-color="#F6DFB1"/></linearGradient><linearGradient id="world-map-wood" x1="0" y1="0" x2=".2" y2="1"><stop stop-color="#E6BD7F"/><stop offset=".5" stop-color="#BD8B53"/><stop offset="1" stop-color="#8D603E"/></linearGradient><linearGradient id="world-map-wall" x2=".8" y2="1"><stop stop-color="#FFF3D5"/><stop offset=".65" stop-color="#EAD5AC"/><stop offset="1" stop-color="#C3AE84"/></linearGradient><linearGradient id="world-map-roof" x2=".25" y2="1"><stop stop-color="#DA8C6C"/><stop offset=".6" stop-color="#B86556"/><stop offset="1" stop-color="#874B46"/></linearGradient><linearGradient id="world-map-leaf" x2=".7" y2="1"><stop stop-color="#8DA66B"/><stop offset=".55" stop-color="#527C59"/><stop offset="1" stop-color="#2B5748"/></linearGradient><linearGradient id="world-map-water" x2="0" y2="1"><stop stop-color="#8AC1AF"/><stop offset=".45" stop-color="#519688"/><stop offset="1" stop-color="#266F68"/></linearGradient><linearGradient id="world-map-fox" x2=".6" y2="1"><stop stop-color="#ECAF64"/><stop offset=".45" stop-color="#D68549"/><stop offset="1" stop-color="#A95635"/></linearGradient><linearGradient id="world-map-apple" x2=".8" y2="1"><stop stop-color="#E6A077"/><stop offset=".35" stop-color="#CA6B54"/><stop offset="1" stop-color="#963E3D"/></linearGradient><linearGradient id="world-map-pear" x2=".7" y2="1"><stop stop-color="#E7CC76"/><stop offset=".4" stop-color="#B9BA60"/><stop offset="1" stop-color="#788C4D"/></linearGradient><radialGradient id="world-map-light"><stop stop-color="#FFE8A5" stop-opacity=".9"/><stop offset="1" stop-color="#FFE8A5" stop-opacity="0"/></radialGradient><filter id="world-map-shadow" x="-20%" y="-20%" width="140%" height="150%"><feDropShadow dx="0" dy="5" stdDeviation="3" flood-color="#263D38" flood-opacity=".16"/></filter></defs><rect x="12" y="12" width="616" height="396" rx="29" fill="#CFB78A" /><path d="M31 28Q173 14 316 29Q465 12 609 30L618 390Q463 371 319 389Q161 371 27 389Z" fill="url(#world-map-wall)" /><path d="M52 70Q129 15 208 68Q319 5 371 82Q515 8 588 80L580 328Q491 383 386 331Q289 391 205 333Q91 383 47 313Z" fill="#B5BF8C" /><path d="M287 38Q233 95 294 133Q347 174 280 208Q226 235 279 278Q331 321 278 378L321 376Q370 324 316 278Q261 234 328 208Q390 173 329 128Q278 90 330 35Z" fill="url(#world-map-water)" /><path d="M143 275Q185 206 291 188Q391 193 442 96M326 218Q409 275 488 290" fill="none" stroke="#F7E6BC" stroke-width="12" stroke-linecap="round" stroke-linejoin="round" /><g transform="translate(-15 6) scale(.34)" ><g transform="translate(488 258)" ><ellipse cx="0" cy="120" rx="186" ry="27" fill="#345647" opacity=".17"/><path d="M-143-39L-34-153L145-44V110Q11 136-143 106Z" fill="url(#world-map-wall)" /><path d="M82-81L145-44V110L83 119Z" fill="#BFA880" /><rect x="68" y="-180" width="32" height="83" rx="5" fill="#AD7862" /><rect x="61" y="-183" width="46" height="14" rx="4" fill="#D49C77" /><path d="M-175-44Q-98-87-66-164Q7-148 37-158Q76-99 173-55L154-32Q55-47-5-119Q-56-58-159-23Z" fill="url(#world-map-roof)" /><path d="M-166-43Q-88-90-65-155Q-11-136 34-150" fill="none" stroke="#EFBD8E" stroke-width="5" stroke-linecap="round" stroke-linejoin="round" /><path d="M-134 -51l16-17" fill="none" stroke="#8F5148" stroke-width="2" stroke-linecap="round" stroke-linejoin="round" /><path d="M-89 -77.45033635316129l16-17" fill="none" stroke="#8F5148" stroke-width="2" stroke-linecap="round" stroke-linejoin="round" /><path d="M-44 -93.79754323328191l16-17" fill="none" stroke="#8F5148" stroke-width="2" stroke-linecap="round" stroke-linejoin="round" /><path d="M1 -93.79754323328191l16-17" fill="none" stroke="#8F5148" stroke-width="2" stroke-linecap="round" stroke-linejoin="round" /><path d="M46 -77.4503363531613l16-17" fill="none" stroke="#8F5148" stroke-width="2" stroke-linecap="round" stroke-linejoin="round" /><path d="M91 -51.00000000000001l16-17" fill="none" stroke="#8F5148" stroke-width="2" stroke-linecap="round" stroke-linejoin="round" /><path d="M-137 96H81M-137 79H-85M74 94V-44" fill="none" stroke="#B39C75" stroke-width="2" stroke-linecap="round" stroke-linejoin="round" /><g transform="translate(-88 38) scale(0.8)" ><path d="M-24 31V-8Q-24-38 0-38Q24-38 24-8V31Z" fill="#866D51" /><path d="M-18 25V-7Q-18-30 0-30Q18-30 18-7V25Z" fill="#738F84" /><path d="M0-29V26M-18 0H18" fill="none" stroke="#F5E3B7" stroke-width="4" stroke-linecap="round" stroke-linejoin="round" /><rect x="-30" y="28" width="60" height="8" rx="4" fill="url(#world-map-wood)" /></g><g transform="translate(84 38) scale(0.8)" ><path d="M-24 31V-8Q-24-38 0-38Q24-38 24-8V31Z" fill="#866D51" /><path d="M-18 25V-7Q-18-30 0-30Q18-30 18-7V25Z" fill="#738F84" /><path d="M0-29V26M-18 0H18" fill="none" stroke="#F5E3B7" stroke-width="4" stroke-linecap="round" stroke-linejoin="round" /><rect x="-30" y="28" width="60" height="8" rx="4" fill="url(#world-map-wood)" /></g><path d="M-37 115V31Q-37-6 0-6Q38-6 38 31V121Z" fill="#685D46" /><path d="M-29 115V31Q-29 3 0 3Q30 3 30 31V120Z" fill="url(#world-map-wood)" /><path d="M-16 14V115M0 9V117M16 14V118" fill="none" stroke="#986E45" stroke-width="2" stroke-linecap="round" stroke-linejoin="round" /><ellipse cx="19" cy="66" rx="4" ry="4" fill="#F8CF77" /><rect x="-47" y="112" width="96" height="12" rx="4" fill="#D6C5A0" /><g transform="translate(-136 116) scale(0.65)" ><path d="M0 0Q5-19 0-36" fill="none" stroke="#3C6950" stroke-width="3" stroke-linecap="round" stroke-linejoin="round" /><path d="M2-10Q-24-29-19-9Q-5-2 2-10M3-17Q20-34 21-21Q17-11 3-17" fill="#779858" /><g transform="rotate(0 0 -36)" ><ellipse cx="0" cy="-44" rx="7" ry="10" fill="#C16C60" /></g><g transform="rotate(72 0 -36)" ><ellipse cx="0" cy="-44" rx="7" ry="10" fill="#C16C60" /></g><g transform="rotate(144 0 -36)" ><ellipse cx="0" cy="-44" rx="7" ry="10" fill="#C16C60" /></g><g transform="rotate(216 0 -36)" ><ellipse cx="0" cy="-44" rx="7" ry="10" fill="#C16C60" /></g><g transform="rotate(288 0 -36)" ><ellipse cx="0" cy="-44" rx="7" ry="10" fill="#C16C60" /></g><ellipse cx="0" cy="-36" rx="6" ry="6" fill="#F8CF77" /><ellipse cx="-2" cy="-38" rx="2" ry="2" fill="#FFF6E5" /></g><g transform="translate(-114 118) scale(0.6)" ><path d="M0 0Q5-19 0-36" fill="none" stroke="#3C6950" stroke-width="3" stroke-linecap="round" stroke-linejoin="round" /><path d="M2-10Q-24-29-19-9Q-5-2 2-10M3-17Q20-34 21-21Q17-11 3-17" fill="#779858" /><g transform="rotate(0 0 -36)" ><ellipse cx="0" cy="-44" rx="7" ry="10" fill="#E8BD6C" /></g><g transform="rotate(72 0 -36)" ><ellipse cx="0" cy="-44" rx="7" ry="10" fill="#E8BD6C" /></g><g transform="rotate(144 0 -36)" ><ellipse cx="0" cy="-44" rx="7" ry="10" fill="#E8BD6C" /></g><g transform="rotate(216 0 -36)" ><ellipse cx="0" cy="-44" rx="7" ry="10" fill="#E8BD6C" /></g><g transform="rotate(288 0 -36)" ><ellipse cx="0" cy="-44" rx="7" ry="10" fill="#E8BD6C" /></g><ellipse cx="0" cy="-36" rx="6" ry="6" fill="#F8CF77" /><ellipse cx="-2" cy="-38" rx="2" ry="2" fill="#FFF6E5" /></g><path d="M-122 65h13m-10 7h22M111 91h21m-23 7h11M-121-15h16m3 0h9M45-20h13" fill="none" stroke="#AE9470" stroke-width="2" stroke-linecap="round" stroke-linejoin="round" opacity=".5"/><path d="M-29 12Q1-3 26 15L-25 105Z" fill="#FFEDC0" opacity=".16"/><path d="M-132-40q27-14 43-28m-28 15l7 8M-72-74l16-15m55-39l14 10m29 28l26 17m19 11l30 13" fill="none" stroke="#F3BC88" stroke-width="2" stroke-linecap="round" stroke-linejoin="round" opacity=".6"/><ellipse cx="3" cy="-52" rx="18" ry="18" fill="#AF8F65" /><ellipse cx="3" cy="-54" rx="13" ry="13" fill="#5B7C70" /><path d="M3-66v24M-9-54h24" fill="none" stroke="#E8CCA0" stroke-width="3" stroke-linecap="round" stroke-linejoin="round" /></g></g><g transform="translate(436 93) scale(.8)" ><g transform="translate(0 0) scale(1)" ><rect x="0" y="0" width="13" height="45" rx="2" fill="#70536F" /><rect x="15" y="-8" width="16" height="53" rx="2" fill="#C16C60" /><rect x="33" y="5" width="12" height="40" rx="2" fill="#24665E" /><rect x="48" y="-2" width="16" height="47" rx="2" fill="#BAA06A" /><path d="M3 6h7M18-2h10M36 11h7M51 5h10" fill="none" stroke="#E8C78B" stroke-width="2" stroke-linecap="round" stroke-linejoin="round" /></g></g><path d="M418 91l42-36 46 36Z" fill="#70536F" /><g transform="translate(452 265) scale(.33)" ><path d="M57 123Q47 35 119 32Q189 37 183 123" fill="none" stroke="#725735" stroke-width="13" stroke-linecap="round" stroke-linejoin="round" /><path d="M57 123Q47 35 119 32Q189 37 183 123" fill="none" stroke="#C5A16A" stroke-width="6" stroke-linecap="round" stroke-linejoin="round" /><path d="M29 109H212L194 195Q121 220 48 193Z" fill="url(#world-map-wood)" stroke="#896640" stroke-width="3"/><path d="M35.4 126Q120 143 204.6 126" fill="none" stroke="#F0CE8F" stroke-width="4" stroke-linecap="round" stroke-linejoin="round" /><path d="M39.2 145Q120 162 200.8 145" fill="none" stroke="#F0CE8F" stroke-width="4" stroke-linecap="round" stroke-linejoin="round" /><path d="M43 164Q120 181 197 164" fill="none" stroke="#F0CE8F" stroke-width="4" stroke-linecap="round" stroke-linejoin="round" /><path d="M46.8 183Q120 200 193.2 183" fill="none" stroke="#F0CE8F" stroke-width="4" stroke-linecap="round" stroke-linejoin="round" /><path d="M58 115l11.16 83" fill="none" stroke="#815D3C" stroke-width="3" stroke-linecap="round" stroke-linejoin="round" /><path d="M85 115l6.3 83" fill="none" stroke="#815D3C" stroke-width="3" stroke-linecap="round" stroke-linejoin="round" /><path d="M112 115l1.44 83" fill="none" stroke="#815D3C" stroke-width="3" stroke-linecap="round" stroke-linejoin="round" /><path d="M139 115l-3.42 83" fill="none" stroke="#815D3C" stroke-width="3" stroke-linecap="round" stroke-linejoin="round" /><path d="M166 115l-8.28 83" fill="none" stroke="#815D3C" stroke-width="3" stroke-linecap="round" stroke-linejoin="round" /><path d="M193 115l-13.139999999999999 83" fill="none" stroke="#815D3C" stroke-width="3" stroke-linecap="round" stroke-linejoin="round" /><path d="M29 110Q120 127 212 110" fill="none" stroke="#E5BF7C" stroke-width="13" stroke-linecap="round" stroke-linejoin="round" /><path d="M30 106Q120 122 212 106" fill="none" stroke="#A9824D" stroke-width="3" stroke-linecap="round" stroke-linejoin="round" /></g><g transform="translate(86 162) scale(.45)" ><g transform="translate(0 0) scale(1)" ><ellipse cx="0" cy="3" rx="48" ry="9" fill="#395B44" opacity=".13"/><path d="M0 0Q-5-70 0-137" fill="none" stroke="#826B48" stroke-width="10" stroke-linecap="round" stroke-linejoin="round" /><path d="M0-55L-27-92M0-82L23-113" fill="none" stroke="#826B48" stroke-width="6" stroke-linecap="round" stroke-linejoin="round" /><path d="M-52-78Q-74-112-43-136Q-53-169-18-178Q6-211 35-177Q74-172 64-137Q83-106 49-83Q29-64-2-76Z" fill="url(#world-map-leaf)" /><path d="M-42-129Q-51-154-24-162Q-7-187 14-170Q29-180 44-153Q16-162 2-141Q-19-121-42-129Z" fill="#B6C087" opacity=".5"/><path d="M-25-112q18-8 28-24m12 28q18-7 23-21" fill="none" stroke="#CCD39C" stroke-width="2" stroke-linecap="round" stroke-linejoin="round" opacity=".4"/><g transform="translate(-32 -99) rotate(0)" ><path d="M0 0q-9-10 3-13q9 8-3 13Z" fill="#839C66" opacity=".48"/></g><g transform="translate(-9 -116) rotate(39)" ><path d="M0 0q-9-10 3-13q9 8-3 13Z" fill="#D0D59C" opacity=".48"/></g><g transform="translate(14 -133) rotate(78)" ><path d="M0 0q-9-10 3-13q9 8-3 13Z" fill="#839C66" opacity=".48"/></g><g transform="translate(37 -150) rotate(117)" ><path d="M0 0q-9-10 3-13q9 8-3 13Z" fill="#D0D59C" opacity=".48"/></g><g transform="translate(-16 -106) rotate(156)" ><path d="M0 0q-9-10 3-13q9 8-3 13Z" fill="#839C66" opacity=".48"/></g><g transform="translate(7 -123) rotate(195)" ><path d="M0 0q-9-10 3-13q9 8-3 13Z" fill="#D0D59C" opacity=".48"/></g><g transform="translate(30 -140) rotate(234)" ><path d="M0 0q-9-10 3-13q9 8-3 13Z" fill="#839C66" opacity=".48"/></g><g transform="translate(-23 -157) rotate(273)" ><path d="M0 0q-9-10 3-13q9 8-3 13Z" fill="#D0D59C" opacity=".48"/></g><g transform="translate(0 -113) rotate(312)" ><path d="M0 0q-9-10 3-13q9 8-3 13Z" fill="#839C66" opacity=".48"/></g><path d="M-2-10l-2-27M-3-47v-11" fill="none" stroke="#C0A474" stroke-width="2" stroke-linecap="round" stroke-linejoin="round" /></g></g><g transform="translate(539 208) scale(.5)" ><g transform="translate(0 0) scale(1)" ><ellipse cx="0" cy="3" rx="48" ry="9" fill="#395B44" opacity=".13"/><path d="M0 0Q-5-70 0-137" fill="none" stroke="#826B48" stroke-width="10" stroke-linecap="round" stroke-linejoin="round" /><path d="M0-55L-27-92M0-82L23-113" fill="none" stroke="#826B48" stroke-width="6" stroke-linecap="round" stroke-linejoin="round" /><path d="M-52-78Q-74-112-43-136Q-53-169-18-178Q6-211 35-177Q74-172 64-137Q83-106 49-83Q29-64-2-76Z" fill="url(#world-map-leaf)" /><path d="M-42-129Q-51-154-24-162Q-7-187 14-170Q29-180 44-153Q16-162 2-141Q-19-121-42-129Z" fill="#B6C087" opacity=".5"/><path d="M-25-112q18-8 28-24m12 28q18-7 23-21" fill="none" stroke="#CCD39C" stroke-width="2" stroke-linecap="round" stroke-linejoin="round" opacity=".4"/><g transform="translate(-32 -99) rotate(0)" ><path d="M0 0q-9-10 3-13q9 8-3 13Z" fill="#839C66" opacity=".48"/></g><g transform="translate(-9 -116) rotate(39)" ><path d="M0 0q-9-10 3-13q9 8-3 13Z" fill="#D0D59C" opacity=".48"/></g><g transform="translate(14 -133) rotate(78)" ><path d="M0 0q-9-10 3-13q9 8-3 13Z" fill="#839C66" opacity=".48"/></g><g transform="translate(37 -150) rotate(117)" ><path d="M0 0q-9-10 3-13q9 8-3 13Z" fill="#D0D59C" opacity=".48"/></g><g transform="translate(-16 -106) rotate(156)" ><path d="M0 0q-9-10 3-13q9 8-3 13Z" fill="#839C66" opacity=".48"/></g><g transform="translate(7 -123) rotate(195)" ><path d="M0 0q-9-10 3-13q9 8-3 13Z" fill="#D0D59C" opacity=".48"/></g><g transform="translate(30 -140) rotate(234)" ><path d="M0 0q-9-10 3-13q9 8-3 13Z" fill="#839C66" opacity=".48"/></g><g transform="translate(-23 -157) rotate(273)" ><path d="M0 0q-9-10 3-13q9 8-3 13Z" fill="#D0D59C" opacity=".48"/></g><g transform="translate(0 -113) rotate(312)" ><path d="M0 0q-9-10 3-13q9 8-3 13Z" fill="#839C66" opacity=".48"/></g><path d="M-2-10l-2-27M-3-47v-11" fill="none" stroke="#C0A474" stroke-width="2" stroke-linecap="round" stroke-linejoin="round" /></g></g><g  id="world-map-route-to-library-market" aria-label="route to library market" data-result="route-to-library-market" style="display:none"><path d="M176 280Q193 210 290 190Q381 193 445 103M329 219Q406 269 478 290" fill="none" stroke="#24665E" stroke-width="4" stroke-linecap="round" stroke-linejoin="round" stroke-dasharray="6 9"/></g><ellipse cx="145" cy="293" rx="10" ry="10" fill="#24665E" /><ellipse cx="461" cy="101" rx="10" ry="10" fill="#70536F" /><ellipse cx="498" cy="297" rx="10" ry="10" fill="#C16C60" /><g transform="translate(566 352)" ><path d="M0-23L7-7 23 0 7 7 0 23-7 7-23 0-7-7Z" fill="#24665E" /><path d="M0-23L7-7 0 0Z" fill="#FFF6E5" /></g></svg>